<?xml version="1.0" standalone="no"?>
<!DOCTYPE svg PUBLIC "-//W3C//DTD SVG 20010904//EN"
 "http://www.w3.org/TR/2001/REC-SVG-20010904/DTD/svg10.dtd">
<svg version="1.0" xmlns="http://www.w3.org/2000/svg"
 width="512.000000pt" height="512.000000pt" viewBox="0 0 512.000000 512.000000"
 preserveAspectRatio="xMidYMid meet">

<g transform="translate(0.000000,512.000000) scale(0.100000,-0.100000)"
fill="#000000" stroke="none">
<path d="M812 5104 c-413 -75 -725 -390 -797 -803 -23 -129 -23 -3353 0 -3482
73 -417 387 -731 804 -804 72 -12 224 -15 928 -15 l843 0 32 29 33 29 3 419
c2 400 1 419 -17 450 -36 57 -112 63 -160 12 -21 -22 -21 -31 -21 -381 l0
-358 -727 0 c-408 0 -770 5 -823 10 -380 40 -660 320 -700 700 -13 128 -13
3172 0 3300 40 380 320 660 700 700 128 13 3172 13 3300 0 380 -40 660 -320
700 -700 13 -128 13 -3172 0 -3300 -34 -320 -237 -572 -541 -669 -97 -31 -224
-41 -561 -41 l-308 0 0 880 0 880 294 0 c189 0 304 4 325 11 18 7 38 24 47 41
20 38 93 738 82 789 -3 18 -18 44 -33 56 -26 23 -27 23 -371 23 l-344 0 0 183
c0 168 8 248 25 265 4 4 152 9 329 12 288 4 325 7 349 23 16 10 32 29 37 43 6
15 10 186 10 399 l0 375 -29 32 -29 33 -394 3 c-524 4 -637 -7 -814 -78 -269
-107 -454 -351 -509 -669 -11 -60 -15 -161 -15 -352 l0 -269 -249 0 c-137 0
-261 -4 -274 -9 -14 -6 -35 -20 -46 -32 -21 -22 -21 -31 -21 -419 0 -388 0
-397 21 -419 11 -12 32 -26 46 -32 13 -5 137 -9 274 -9 l249 0 0 -161 0 -161
29 -29 c40 -40 89 -40 133 0 l33 29 3 224 c4 322 20 308 -350 308 l-238 0 0
250 0 250 238 0 c267 0 304 6 332 53 19 30 20 53 20 342 0 319 8 413 46 530
68 208 216 350 434 416 72 22 93 23 493 27 l417 3 0 -245 0 -245 -272 -3
c-252 -3 -276 -5 -318 -24 -57 -26 -106 -76 -134 -134 -20 -42 -21 -64 -24
-335 -3 -256 -2 -294 13 -321 9 -18 28 -37 41 -43 17 -7 133 -11 354 -11 182
0 330 -3 330 -7 0 -5 -11 -118 -25 -253 -14 -135 -25 -246 -25 -247 0 -2 -129
-3 -287 -3 -171 0 -303 -4 -326 -11 -26 -7 -44 -21 -57 -42 -19 -31 -20 -59
-20 -1039 l0 -1008 29 -32 29 -33 424 -3 c344 -2 440 0 513 12 421 71 737 386
810 805 23 129 23 3353 0 3482 -73 417 -387 731 -804 804 -74 13 -311 15
-1751 14 -1345 -1 -1679 -4 -1738 -15z"/>
<path d="M536 4085 c-57 -30 -55 -13 -56 -508 l0 -459 29 -29 c23 -23 38 -29
71 -29 33 0 48 6 71 29 l29 29 0 459 c0 452 0 460 -21 482 -21 22 -59 41 -82
41 -7 0 -25 -7 -41 -15z"/>
<path d="M535 2818 c-80 -44 -72 -157 13 -189 63 -24 132 26 132 95 -1 79 -80
130 -145 94z"/>
<path d="M2515 1359 c-79 -45 -72 -158 11 -189 67 -26 146 47 128 118 -15 58
-92 97 -139 71z"/>
</g>
</svg>
