<?xml version="1.0" standalone="no"?>
<!DOCTYPE svg PUBLIC "-//W3C//DTD SVG 20010904//EN"
 "http://www.w3.org/TR/2001/REC-SVG-20010904/DTD/svg10.dtd">
<svg version="1.0" xmlns="http://www.w3.org/2000/svg"
 width="728.000000pt" height="596.000000pt" viewBox="0 0 728.000000 596.000000"
 preserveAspectRatio="xMidYMid meet">

<g transform="translate(0.000000,596.000000) scale(0.100000,-0.100000)"
fill="#000000" stroke="none">
<path d="M3353 5300 c-50 -12 -115 -49 -158 -90 -40 -39 -40 -39 -120 -38 -67
1 -91 -3 -137 -25 -106 -48 -191 -161 -218 -290 -6 -32 -17 -60 -23 -62 -7 -2
-31 -9 -55 -15 -52 -13 -113 -66 -150 -129 -24 -41 -27 -57 -29 -151 l-2 -104
-36 -22 c-84 -50 -141 -135 -164 -243 -11 -53 -17 -278 -7 -288 2 -3 10 15 16
38 39 145 175 249 283 217 57 -17 120 -78 148 -142 13 -31 27 -56 30 -56 12 0
29 116 29 201 0 59 -6 102 -16 129 -16 41 -16 41 9 68 41 43 96 142 118 212
16 51 26 135 29 230 0 3 20 11 43 17 99 27 258 171 273 247 l5 31 147 0 c140
0 150 1 202 27 l55 27 115 -49 c137 -58 266 -97 373 -112 66 -9 85 -8 121 6
51 20 99 67 94 93 -3 16 -14 18 -103 19 -68 0 -111 5 -135 16 -42 18 -117 74
-191 142 -102 93 -166 98 -270 24 -13 -9 -24 -5 -55 20 -67 54 -141 71 -221
52z m124 -40 c17 -10 37 -28 43 -40 11 -21 11 -21 -21 -5 -50 27 -146 17 -193
-19 -21 -15 -39 -26 -42 -23 -10 10 52 71 91 88 52 24 82 24 122 -1z m370 -34
l23 -21 -73 0 c-39 0 -81 -4 -92 -9 l-20 -9 20 23 c26 29 74 51 100 43 11 -3
30 -15 42 -27z m-777 -116 l35 -19 -51 -1 c-65 0 -142 -38 -189 -93 -19 -22
-35 -34 -35 -26 0 33 79 124 125 145 41 18 74 17 115 -6z m-318 -411 c23 -21
27 -28 13 -23 -71 26 -171 0 -220 -58 -28 -34 -31 -31 -11 15 23 56 86 97 148
97 28 0 46 -8 70 -31z m-119 -361 c36 -26 34 -40 -4 -26 -67 23 -187 -10 -251
-70 -16 -14 -28 -21 -28 -16 0 13 89 99 119 114 65 33 115 33 164 -2z"/>
<path d="M4229 4913 c-37 -22 -59 -64 -59 -110 0 -44 19 -75 78 -128 24 -21
53 -57 64 -79 21 -40 21 -76 2 -198 -8 -47 4 -48 50 -7 58 50 80 122 80 264 1
116 0 123 -31 186 -21 42 -42 70 -58 77 -36 17 -95 14 -126 -5z m108 -24 c26
-10 43 -25 43 -41 0 -4 -12 -3 -27 3 -32 12 -100 4 -122 -14 -11 -10 -13 -9
-9 3 5 15 64 60 79 60 4 0 20 -5 36 -11z"/>
<path d="M3854 4602 c-151 -45 -222 -124 -238 -262 l-6 -55 26 50 c66 126 180
197 257 160 35 -16 53 -46 78 -130 6 -22 23 -52 37 -67 34 -37 103 -62 144
-54 108 21 180 155 133 246 -52 101 -273 159 -431 112z m281 -42 c23 -12 30
-22 30 -45 0 -36 -7 -36 -95 1 -40 16 -91 29 -133 32 -65 5 -76 14 -32 25 41
11 200 2 230 -13z"/>
<path d="M2472 4049 c-100 -50 -161 -194 -178 -417 -7 -96 1 -115 27 -66 21
40 119 125 168 147 87 38 190 4 247 -83 15 -22 30 -40 34 -40 10 0 -18 176
-41 255 -22 74 -78 166 -119 197 -41 30 -89 32 -138 7z"/>
<path d="M2235 3708 c-46 -156 -66 -414 -46 -603 35 -324 149 -553 321 -644
32 -17 63 -31 70 -31 6 0 -5 24 -26 53 -170 235 -265 449 -298 671 -18 119
-20 335 -6 495 5 58 8 107 5 109 -2 2 -11 -20 -20 -50z"/>
<path d="M3210 3678 c-18 -31 -20 -49 -17 -253 2 -218 2 -221 -26 -308 -16
-48 -26 -94 -23 -102 15 -41 82 9 125 93 31 61 49 185 51 352 3 205 4 197 -25
225 -33 34 -61 32 -85 -7z"/>
<path d="M2460 3607 c-25 -12 -73 -49 -107 -82 l-63 -61 0 -117 c0 -64 4 -117
8 -117 4 0 24 16 43 36 50 54 174 132 237 150 66 19 112 15 186 -19 59 -27
141 -97 151 -128 4 -10 11 -19 16 -19 12 0 -53 130 -101 200 -43 63 -122 140
-168 164 -46 24 -146 20 -202 -7z"/>
<path d="M3370 3601 c-38 -72 -52 -253 -23 -302 34 -58 130 -58 120 -1 -15 90
-38 234 -43 275 -4 38 -9 47 -24 47 -11 0 -24 -9 -30 -19z"/>
<path d="M3670 3440 c0 -87 38 -130 127 -145 56 -9 67 13 27 53 -16 16 -48 52
-72 80 -54 66 -82 69 -82 12z"/>
<path d="M3552 3445 c-7 -14 -16 -79 -22 -143 -19 -229 -36 -280 -116 -348
-55 -47 -67 -77 -42 -102 17 -17 59 -15 86 4 78 55 223 326 222 417 -1 73 -64
195 -101 196 -9 1 -21 -10 -27 -24z"/>
<path d="M1632 3407 c-40 -23 -62 -74 -102 -235 -21 -87 -45 -175 -53 -197 -8
-22 -13 -43 -10 -47 10 -18 55 -6 89 24 51 45 74 85 138 238 57 135 67 188 42
209 -22 18 -79 23 -104 8z"/>
<path d="M1823 3358 c-34 -37 -63 -105 -63 -146 0 -52 69 -150 184 -260 111
-107 167 -142 223 -142 57 0 57 20 -1 59 -86 59 -114 107 -176 292 -57 169
-85 219 -125 219 -12 0 -31 -10 -42 -22z"/>
<path d="M2535 3307 c-63 -24 -190 -102 -214 -131 -12 -14 -13 -29 -4 -79 12
-70 50 -177 63 -177 4 0 17 14 28 32 34 53 130 143 179 168 125 62 270 57 416
-17 l48 -24 -12 23 c-23 43 -164 174 -214 198 -73 36 -206 39 -290 7z"/>
<path d="M3895 3283 c-27 -30 -55 -106 -80 -224 -18 -88 -56 -154 -111 -195
-91 -66 -115 -104 -78 -118 48 -19 125 6 182 57 55 51 178 236 193 292 21 74
-23 215 -66 215 -8 0 -26 -12 -40 -27z"/>
<path d="M4083 3297 c-53 -12 -55 -33 -5 -54 34 -14 40 -14 82 2 25 9 57 19
73 22 59 11 13 44 -60 42 -26 -1 -67 -6 -90 -12z"/>
<path d="M4038 3188 c-18 -34 -15 -147 5 -185 21 -40 55 -52 75 -27 30 41 -12
234 -52 234 -8 0 -21 -10 -28 -22z"/>
<path d="M4395 3069 c-80 -18 -125 -40 -125 -60 0 -21 35 -39 78 -39 14 0 43
12 64 27 22 14 55 27 76 28 43 3 49 23 12 42 -28 14 -48 15 -105 2z"/>
<path d="M2653 3051 c-39 -11 -86 -27 -104 -36 -43 -23 -127 -102 -146 -138
-17 -34 -13 -41 66 -126 28 -30 51 -58 51 -63 0 -23 21 -1 56 58 121 207 356
294 566 209 77 -30 63 -13 -24 31 -146 73 -336 100 -465 65z"/>
<path d="M4160 3048 c0 -34 -83 -177 -155 -268 -66 -83 -99 -149 -83 -165 2
-3 44 23 94 56 49 34 110 72 136 85 82 42 112 106 89 194 -12 47 -81 130 -81
98z"/>
<path d="M1757 2952 c-19 -21 -22 -86 -6 -129 22 -59 60 -102 108 -120 63 -24
386 -27 386 -3 0 22 -71 57 -155 76 -115 25 -160 48 -204 106 -34 43 -88 88
-107 88 -3 0 -13 -8 -22 -18z"/>
<path d="M4266 2939 c-3 -17 -6 -71 -6 -119 0 -111 8 -119 78 -84 85 42 81 92
-18 189 l-47 46 -7 -32z"/>
<path d="M2910 2906 c-116 -25 -253 -112 -344 -220 -55 -64 -55 -66 23 -118
25 -17 60 -44 77 -60 l32 -30 42 81 c48 92 143 198 205 229 84 42 153 55 249
48 49 -4 98 -12 108 -17 11 -6 27 -9 36 -7 28 6 -126 77 -203 93 -83 17 -150
18 -225 1z"/>
<path d="M4721 2896 c-68 -23 -81 -37 -61 -61 25 -31 75 -29 133 4 30 17 69
31 86 31 34 0 39 10 15 34 -22 23 -97 19 -173 -8z"/>
<path d="M1409 2887 c-8 -6 -40 -46 -71 -87 -66 -90 -76 -99 -153 -142 -123
-69 -40 -104 87 -36 73 39 170 125 187 167 7 15 11 46 9 67 -2 30 -8 40 -23
41 -11 2 -27 -3 -36 -10z"/>
<path d="M4400 2885 c0 -56 88 -105 189 -105 61 0 63 1 57 23 -4 12 -9 34 -12
49 -6 25 -9 27 -63 27 -54 -1 -113 6 -153 18 -12 3 -18 -1 -18 -12z"/>
<path d="M1661 2844 c-14 -25 -64 -91 -113 -147 -86 -98 -108 -139 -108 -199
0 -42 10 -58 38 -58 57 0 172 124 213 230 35 91 38 220 6 220 -6 0 -23 -21
-36 -46z"/>
<path d="M3140 2763 c-154 -23 -286 -101 -354 -207 -46 -71 -52 -94 -29 -102
52 -19 105 -94 134 -192 7 -23 14 -40 16 -38 2 2 13 37 25 77 58 208 170 347
323 404 62 23 202 24 290 2 33 -9 61 -14 63 -12 6 6 -125 45 -202 60 -71 14
-205 18 -266 8z"/>
<path d="M4880 2689 c-94 -13 -167 -55 -196 -112 -13 -25 -15 -48 -11 -114 l6
-83 -25 6 c-32 8 -84 -14 -94 -40 -4 -12 -4 -31 1 -42 7 -19 2 -18 -43 12 -50
34 -80 40 -160 36 -30 -2 -36 1 -32 12 8 21 40 29 64 16 34 -18 22 5 -21 40
-108 86 -261 93 -314 14 -21 -32 -22 -32 -56 -16 -54 24 -182 21 -246 -8 -61
-26 -116 -82 -146 -149 -18 -39 -22 -65 -22 -171 0 -106 2 -124 15 -121 63 14
91 12 145 -13 32 -14 59 -26 61 -26 2 0 1 24 -2 53 -10 81 17 162 71 213 41
40 117 75 159 73 12 0 -5 -9 -36 -20 -121 -43 -181 -162 -152 -307 6 -29 7
-30 37 -17 33 14 72 7 114 -20 14 -9 26 -15 27 -13 1 2 7 29 14 62 21 104 87
187 161 202 33 7 33 7 -22 -45 -73 -69 -99 -129 -95 -219 l3 -67 51 0 52 1 4
-76 c10 -169 114 -275 309 -316 77 -16 112 -13 64 5 -52 20 -76 35 -121 74
-75 66 -94 182 -44 265 11 18 26 32 33 32 8 0 35 -16 60 -35 60 -46 102 -128
94 -185 -6 -44 1 -50 28 -20 31 35 31 129 -2 216 -4 13 8 6 35 -18 50 -45 112
-78 147 -78 14 0 25 2 25 5 0 3 -23 29 -50 57 -47 48 -109 152 -98 163 3 3 27
-3 53 -12 92 -31 188 -157 202 -264 8 -59 20 -47 27 29 16 159 -38 270 -168
346 -54 32 -65 43 -70 71 -8 42 -46 88 -85 105 -16 6 -31 19 -34 28 -3 9 -8
26 -13 36 -7 18 -6 19 15 4 26 -18 57 -13 88 14 17 16 25 18 41 9 49 -26 93
29 107 134 10 79 10 78 55 55 24 -12 49 -18 61 -15 11 4 19 2 19 -4 0 -25 65
-51 125 -51 l60 0 0 -83 c1 -97 20 -161 74 -244 52 -79 103 -126 179 -164 53
-26 81 -33 170 -40 141 -11 175 -16 250 -41 74 -24 156 -94 243 -208 30 -39
55 -67 57 -61 5 16 -39 112 -81 176 -45 69 -115 145 -171 186 -48 36 -26 38
49 5 140 -63 331 -256 390 -396 30 -72 37 -71 32 5 -18 295 -328 791 -611 979
-161 107 -316 129 -420 59 -28 -18 -41 -22 -44 -14 -9 28 -69 85 -107 102 -50
23 -68 23 -111 3 -31 -15 -35 -15 -49 0 -9 9 -17 16 -18 16 -1 0 -16 4 -32 8
-17 4 -50 5 -75 1z m676 -183 c108 -28 242 -118 326 -217 40 -48 106 -149 96
-149 -2 0 -29 24 -59 53 -115 108 -259 159 -439 155 -120 -2 -165 13 -176 59
-11 42 14 76 71 95 61 21 114 22 181 4z m-985 -276 l24 -20 -25 5 c-14 3 -44
7 -67 8 -44 2 -56 12 -25 20 39 10 71 6 93 -13z"/>
<path d="M3345 2671 c-143 -35 -247 -121 -317 -262 -34 -70 -78 -204 -78 -240
0 -10 15 -21 43 -29 44 -14 161 -40 164 -37 0 1 12 52 26 113 73 322 192 406
557 391 l135 -6 -89 30 c-92 29 -263 60 -332 58 -22 0 -70 -8 -109 -18z"/>
<path d="M1004 2616 c-35 -15 -84 -64 -84 -83 0 -16 22 -17 37 -2 7 7 40 15
75 18 54 5 63 9 66 27 4 25 -22 54 -46 54 -9 -1 -31 -7 -48 -14z"/>
<path d="M2165 2607 c-41 -62 -39 -204 3 -286 38 -72 114 -88 452 -92 l215 -3
3 32 c6 59 -73 162 -122 162 -9 0 -34 -9 -56 -20 -58 -30 -143 -27 -206 6 -60
31 -92 61 -152 139 -26 33 -53 65 -62 72 -24 20 -58 15 -75 -10z"/>
<path d="M3695 2580 c-162 -18 -270 -64 -355 -149 -69 -69 -100 -133 -112
-232 -12 -98 -1 -129 44 -129 18 -1 81 -13 139 -28 l106 -27 -5 67 c-13 185
71 337 210 381 67 21 169 22 234 2 61 -18 64 -18 64 -1 0 26 30 46 71 46 59 0
40 15 -48 39 -63 17 -253 44 -273 39 -3 0 -36 -4 -75 -8z"/>
<path d="M1976 2468 c-50 -50 -67 -76 -85 -128 -28 -80 -38 -208 -21 -269 15
-58 67 -111 108 -111 51 0 57 17 62 199 5 161 6 168 38 235 45 96 42 136 -10
136 -23 0 -44 -14 -92 -62z"/>
<path d="M1372 2433 c-16 -43 -33 -89 -37 -103 -12 -39 -51 -95 -82 -119 -49
-36 -52 -41 -47 -56 8 -20 89 -57 116 -53 18 2 24 12 29 43 4 22 24 68 44 102
34 58 37 68 36 138 -1 81 -8 125 -21 125 -5 0 -22 -35 -38 -77z"/>
<path d="M2594 2124 c17 -99 50 -187 83 -222 30 -31 37 -34 71 -28 22 3 90 30
153 60 118 57 213 86 286 86 35 0 40 3 36 18 -11 44 -88 64 -323 82 -128 10
-237 24 -289 37 -23 6 -23 4 -17 -33z"/>
<path d="M1177 2073 c-57 -61 -90 -202 -53 -232 12 -10 20 -1 47 50 19 36 53
78 81 102 69 58 63 107 -12 107 -27 0 -43 -7 -63 -27z"/>
<path d="M2435 2076 c-62 -29 -95 -64 -134 -142 -47 -96 -48 -107 -8 -126 19
-9 50 -35 68 -57 18 -23 35 -41 39 -41 12 0 46 34 60 59 7 13 25 71 41 128 15
57 37 123 48 147 12 23 21 45 21 49 0 16 -89 5 -135 -17z"/>
<path d="M3235 1994 c-100 -51 -215 -236 -215 -343 0 -41 31 -91 56 -91 19 0
17 -10 -6 -40 -27 -35 -27 -111 2 -161 35 -62 103 -84 172 -55 l33 14 5 -88
c8 -138 42 -215 137 -310 129 -129 270 -192 571 -254 99 -21 530 -22 605 -2
47 12 37 13 -165 19 -142 4 -240 11 -290 22 -90 20 -206 73 -240 111 l-25 27
25 -7 c191 -50 448 -70 600 -47 105 16 260 53 260 62 0 4 -25 15 -56 24 -101
29 -238 96 -350 170 -112 75 -234 188 -459 426 -113 120 -175 157 -272 166
-74 6 -153 -22 -216 -77 l-45 -40 -6 25 c-6 25 -51 55 -81 55 -11 0 -15 6 -11
18 2 9 8 46 11 82 10 87 32 143 54 134 9 -3 35 -10 58 -15 23 -4 65 -20 92
-34 64 -32 95 -32 128 1 18 18 29 22 36 15 14 -14 62 -14 87 -1 42 23 46 118
6 133 -29 11 -76 -5 -100 -34 l-23 -27 -39 40 c-91 94 -160 122 -199 78 -17
-19 -18 -19 -43 0 -30 24 -57 25 -97 4z m466 -463 c25 -10 68 -33 95 -51 48
-33 62 -45 131 -104 41 -35 193 -215 193 -229 0 -5 -24 10 -52 35 -111 93
-235 158 -360 188 -99 24 -156 25 -222 5 -26 -8 -52 -12 -57 -9 -20 12 -8 72
22 113 57 80 134 95 250 52z"/>
<path d="M1837 1868 c-27 -108 -31 -179 -14 -239 15 -50 47 -99 65 -99 21 0
121 303 122 368 0 20 -3 21 -21 12 -15 -9 -31 -8 -66 4 -26 9 -52 16 -59 16
-6 0 -19 -28 -27 -62z"/>
<path d="M3826 1864 c-3 -9 -6 -37 -6 -62 0 -79 49 -119 158 -128 58 -5 65 9
11 20 -41 8 -96 66 -126 134 -14 28 -26 52 -28 52 -1 0 -6 -7 -9 -16z"/>
<path d="M4012 1833 c-11 -29 -6 -101 8 -118 21 -26 61 -43 113 -48 58 -7 60
4 6 28 -50 23 -85 64 -99 115 -12 44 -17 48 -28 23z"/>
<path d="M2246 1673 c-14 -60 -37 -129 -49 -155 l-23 -47 52 -51 52 -51 22 47
c51 109 60 265 20 332 -33 54 -45 42 -74 -75z"/>
<path d="M1761 1526 c-53 -40 -101 -97 -128 -154 -21 -44 -23 -58 -14 -78 13
-30 23 -30 36 -2 6 13 42 44 80 70 147 100 158 116 110 163 -30 31 -43 31 -84
1z"/>
<path d="M2115 1353 c-94 -114 -133 -211 -105 -264 16 -28 27 -23 41 18 7 23
37 61 81 103 55 52 71 75 79 109 10 44 -3 90 -28 98 -6 2 -37 -26 -68 -64z"/>
</g>
</svg>
