<?xml version="1.0" standalone="no"?>
<!DOCTYPE svg PUBLIC "-//W3C//DTD SVG 20010904//EN"
 "http://www.w3.org/TR/2001/REC-SVG-20010904/DTD/svg10.dtd">
<svg version="1.0" xmlns="http://www.w3.org/2000/svg"
 width="512.000000pt" height="512.000000pt" viewBox="0 0 512.000000 512.000000"
 preserveAspectRatio="xMidYMid meet">

<g transform="translate(0.000000,512.000000) scale(0.100000,-0.100000)"
fill="#000000" stroke="none">
<path d="M2360 4954 c-335 -25 -699 -129 -966 -275 -94 -52 -114 -97 -66 -151
26 -31 71 -21 207 47 634 314 1421 300 2055 -37 1097 -582 1525 -1904 965
-2984 -274 -529 -737 -925 -1300 -1113 -1392 -464 -2789 445 -2926 1903 -16
173 -7 446 20 601 67 382 207 711 428 1003 79 105 86 117 77 145 -12 39 -35
57 -75 57 -35 0 -43 -6 -90 -62 -127 -153 -277 -413 -358 -624 -128 -331 -187
-720 -162 -1065 44 -603 267 -1116 662 -1524 302 -311 675 -530 1082 -634 322
-83 630 -99 967 -50 780 112 1474 610 1825 1310 109 216 189 470 227 713 30
198 30 494 0 692 -108 708 -527 1328 -1152 1704 -267 161 -584 274 -902 320
-130 19 -407 32 -518 24z"/>
<path d="M1075 4445 c-31 -30 -32 -73 -5 -103 31 -33 85 -33 113 0 26 31 22
82 -9 107 -35 28 -69 26 -99 -4z"/>
<path d="M3510 3564 c-63 -25 -605 -234 -1205 -466 -600 -231 -1114 -434
-1143 -451 -126 -75 -135 -204 -20 -271 24 -13 169 -63 323 -111 154 -48 285
-92 291 -98 6 -7 59 -169 117 -362 59 -192 115 -361 125 -375 37 -50 148 -63
220 -26 17 9 101 81 187 161 87 79 161 143 165 140 3 -2 123 -98 265 -214 211
-171 269 -213 313 -226 101 -32 189 -2 237 80 21 34 67 240 240 1070 236 1128
227 1066 168 1136 -61 72 -125 75 -283 13z m166 -141 c-180 -870 -409 -1956
-417 -1980 -16 -49 -53 -45 -126 14 -32 26 -226 184 -431 351 l-374 305 26 25
c14 14 152 141 308 281 155 141 289 268 297 282 31 56 -36 127 -95 101 -42
-20 -724 -643 -730 -668 -12 -48 6 -69 158 -193 l152 -125 -90 -84 c-158 -148
-213 -194 -227 -189 -7 2 -61 166 -121 363 -76 252 -114 365 -130 381 -14 14
-111 49 -301 108 -154 47 -295 91 -313 97 -23 7 -31 13 -24 20 14 14 2401 936
2425 937 15 1 17 -4 13 -26z"/>
<path d="M3075 3005 c-31 -30 -33 -77 -5 -105 31 -31 85 -30 113 2 26 31 22
82 -9 107 -35 28 -69 26 -99 -4z"/>
</g>
</svg>
